<svg width="1019" height="412" viewBox="0 0 1019 412" fill="none" xmlns="http://www.w3.org/2000/svg">
<path d="M157.495 16.5029C191.377 61.0344 123.324 115.318 132.325 119.119C149.75 119.119 168.144 119.119 180.729 124.927C173.952 109.438 165.441 85.9502 173.952 67.8107C183.234 48.028 201.617 35.2828 223.324 37.8004C245.031 40.3179 250.43 65.4872 250.43 91.0445C250.43 129.767 253.193 157.255 262.047 183.011C274.63 219.618 282.376 250.619 282.376 267.234C282.376 297.499 261.095 321.519 231.068 325.318C206.574 328.417 189.166 317.657 173.952 298.212C155.03 274.028 168.144 219.798 168.144 219.798C168.144 219.798 125.476 236.669 97.0535 236.669C58.283 236.669 21.4182 230.952 5.50772 195.596C-6.84655 168.143 4.35074 147.205 15.1882 119.119C39.8532 55.1964 116.007 -38.0238 157.495 16.5029Z" fill="#BCABD3"/>
<path d="M191.171 93.8091C225.054 138.341 157.001 192.624 166.002 196.425C183.427 196.425 201.82 196.425 214.405 202.233C207.629 186.744 199.118 163.256 207.629 145.117C216.911 125.334 235.294 112.589 257.001 115.107C278.707 117.624 284.106 142.793 284.106 168.351C284.106 207.073 286.87 234.561 295.724 260.317C308.307 296.925 316.053 327.925 316.053 344.54C316.053 374.806 294.771 398.825 264.745 402.624C240.251 405.723 222.843 394.963 207.629 375.518C188.707 351.334 201.82 297.104 201.82 297.104C201.82 297.104 159.153 313.975 130.73 313.975C91.9598 313.975 55.0949 308.258 39.1845 272.902C26.8302 245.449 38.0275 224.511 48.8649 196.425C73.5299 132.503 149.684 39.2824 191.171 93.8091Z" stroke="#8873A6" stroke-width="10"/>
<path d="M855.346 20.0271C889.229 64.5585 821.176 118.842 830.176 122.643C847.602 122.643 865.995 122.643 878.58 128.451C871.804 112.962 863.292 89.4743 871.804 71.3349C881.086 51.5522 899.469 38.807 921.175 41.3246C942.882 43.8421 948.281 69.0114 948.281 94.5686C948.281 133.291 951.044 160.779 959.898 186.535C972.482 223.143 980.228 254.143 980.228 270.758C980.228 301.024 958.946 325.043 928.92 328.842C904.425 331.941 887.017 321.181 871.804 301.736C852.882 277.552 865.995 223.322 865.995 223.322C865.995 223.322 823.328 240.193 794.905 240.193C756.135 240.193 719.27 234.476 703.359 199.12C691.005 171.667 702.202 150.729 713.04 122.643C737.705 58.7206 813.858 -34.4996 855.346 20.0271Z" fill="#BCABD3"/>
<path d="M889.023 97.3332C922.906 141.865 854.852 196.148 863.853 199.949C881.279 199.949 899.672 199.949 912.257 205.757C905.48 190.268 896.969 166.781 905.48 148.641C914.762 128.858 933.146 116.113 954.852 118.631C976.559 121.148 981.958 146.318 981.958 171.875C981.958 210.598 984.721 238.085 993.575 263.842C1006.16 300.449 1013.9 331.449 1013.9 348.064C1013.9 378.33 992.623 402.349 962.597 406.148C938.102 409.248 920.694 398.488 905.48 379.042C886.559 354.858 899.672 300.628 899.672 300.628C899.672 300.628 857.005 317.499 828.582 317.499C789.811 317.499 752.947 311.782 737.036 276.427C724.682 248.974 735.879 228.035 746.716 199.949C771.381 136.027 847.535 42.8065 889.023 97.3332Z" stroke="#8873A6" stroke-width="10"/>
<path fill-rule="evenodd" clip-rule="evenodd" d="M386.383 157.388C377.92 145.376 369.636 133.619 369.184 115.831C367.974 68.1905 386.03 24.7652 431.656 11.005C498.363 -9.11316 573.197 51.5172 604.247 126.419C614.945 152.225 630.058 204.241 611.659 248.186C595.992 285.607 537.54 332.893 479.304 332.893C439.943 332.893 408.63 316.304 393.537 279.951C388.711 268.326 392.841 255.056 397.388 240.446C401.726 226.51 406.443 211.354 404.126 195.244C401.836 179.319 394.036 168.25 386.383 157.388ZM459.457 165.896C456.702 161.986 454.006 158.16 453.859 152.371C453.466 136.867 459.342 122.735 474.19 118.256C495.899 111.709 520.254 131.441 530.359 155.817C533.84 164.215 538.758 181.143 532.771 195.445C527.672 207.623 508.649 223.012 489.697 223.012C476.887 223.012 466.697 217.613 461.785 205.783C460.214 201.999 461.558 197.681 463.038 192.926C464.45 188.39 465.985 183.458 465.231 178.215C464.485 173.033 461.947 169.43 459.457 165.896Z" fill="#BCABD3"/>
<path d="M393.762 186.088C394.622 219.96 423.881 231.965 428.704 265.502C433.45 298.5 408.685 327.493 418.116 350.209C433.209 386.562 464.521 403.151 503.882 403.151C562.119 403.151 620.57 355.865 636.238 318.444C654.636 274.499 639.523 222.483 628.826 196.677C597.775 121.775 522.941 61.1447 456.234 81.2628C410.609 95.023 392.552 138.448 393.762 186.088Z" stroke="#8873A6" stroke-width="10"/>
<path d="M478.438 222.629C478.718 233.652 488.239 237.559 489.809 248.473C491.354 259.212 483.294 268.648 486.363 276.04C491.275 287.871 501.465 293.27 514.275 293.27C533.228 293.27 552.25 277.881 557.349 265.703C563.337 251.401 558.418 234.473 554.937 226.075C544.832 201.699 520.478 181.967 498.769 188.514C483.92 192.992 478.044 207.125 478.438 222.629Z" stroke="#8873A6" stroke-width="10"/>
</svg>
