<svg width="301" height="293" viewBox="0 0 301 293" fill="none" xmlns="http://www.w3.org/2000/svg">
<path d="M123.183 47.058C79.6734 67.309 52.1331 132.276 68.404 177.425C87.8668 231.431 213.108 229.38 256.09 191.327C289.808 161.475 260.769 101.57 234.718 64.8341C209.205 28.8551 163.171 28.4461 123.183 47.058Z" fill="#A2D7B7"/>
<path fill-rule="evenodd" clip-rule="evenodd" d="M61.4823 114.886C51.5332 138.494 49.01 164.689 56.6068 185.769C60.8549 197.557 71.03 206.733 85.4449 213.211C99.8447 219.681 117.992 223.217 137.116 223.941C156.209 224.664 176.013 222.575 193.61 218.003C211.276 213.413 226.335 206.423 236.274 197.623C250.998 184.588 252.606 164.622 246.49 142.007C240.405 119.506 226.996 95.8966 214.139 77.7657C190.681 44.6853 147.82 43.4649 108.792 61.6304C88.4521 71.0972 71.4307 91.2794 61.4823 114.886ZM52.2672 111.002C62.8985 85.7753 81.4019 63.3486 104.572 52.5644C145.519 33.506 194.727 33.1036 222.296 71.9812C235.489 90.586 249.625 115.297 256.143 139.396C262.63 163.38 261.898 188.293 242.903 205.11C231.352 215.337 214.637 222.872 196.124 227.682C177.541 232.51 156.76 234.692 136.737 233.934C116.745 233.177 97.2461 229.477 81.3461 222.332C65.4611 215.194 52.6825 204.375 47.1991 189.159C38.525 165.09 41.6365 136.228 52.2672 111.002Z" fill="#76BA91"/>
<path fill-rule="evenodd" clip-rule="evenodd" d="M183.72 120.903C184.845 122.029 185.477 123.555 185.477 125.145C185.477 126.736 184.845 128.262 183.72 129.387L138.748 174.359C138.154 174.954 137.448 175.425 136.672 175.747C135.895 176.069 135.063 176.235 134.222 176.235C133.382 176.235 132.549 176.069 131.773 175.747C130.996 175.425 130.291 174.954 129.696 174.359L107.352 152.019C106.779 151.466 106.322 150.804 106.008 150.072C105.693 149.34 105.528 148.553 105.521 147.756C105.514 146.959 105.666 146.169 105.967 145.432C106.269 144.694 106.715 144.024 107.278 143.461C107.841 142.898 108.511 142.452 109.249 142.151C109.986 141.849 110.776 141.697 111.573 141.704C112.369 141.711 113.157 141.876 113.889 142.191C114.621 142.505 115.283 142.962 115.836 143.535L134.22 161.919L175.232 120.903C175.79 120.346 176.451 119.904 177.179 119.602C177.908 119.3 178.688 119.145 179.476 119.145C180.265 119.145 181.045 119.3 181.773 119.602C182.502 119.904 183.163 120.346 183.72 120.903Z" fill="#76BA91"/>
</svg>
