<svg width="1441" height="1025" viewBox="0 0 1441 1025" fill="none" xmlns="http://www.w3.org/2000/svg">
<g clip-path="url(#clip0_151_33)">
<rect width="1440" height="1024" transform="translate(0.93335 0.796143)" fill="white"/>
<path d="M86.9149 479.57C40.9198 479.57 -19.8202 511.392 -44.8093 548.99C-45.3986 552.603 -47.8195 556.346 -51.0487 560.12C-58.8214 569.202 -71.2776 578.457 -74.1482 586.476C-80.3253 603.732 -96.5744 622.611 -110.7 637.106C-148.59 675.989 -138.055 732.966 -138.055 779.397C-138.055 792.752 -130.744 804.438 -129.565 817.605C-128.71 827.162 -123.716 850.623 -115.888 858.26C-102.134 871.677 -104.492 918.969 -71.0826 919.995C-14.0141 921.747 46.3972 935.05 86.9149 902.711C127.678 870.176 134.556 850.851 144.637 806.6C158.877 744.09 209.754 715.751 282.407 751.435C343.717 781.548 482.733 803.63 554.776 783.726C635.463 761.434 740.6 719.766 740.6 638.8C740.6 570.571 722.813 476.182 609.957 476.182C557.213 476.182 489.444 487.9 459.506 527C419.789 578.873 361.68 621.861 282.407 621.861C167.531 621.861 195.184 479.57 86.9149 479.57Z" fill="#BCABD3"/>
<path d="M-73.2983 646.206C-73.2983 638.974 -71.4281 631.677 -68.0487 624.497M-61.6711 612.104C-61.6711 612.638 -61.7184 613.174 -61.8093 613.714M-61.8093 613.714C-36.8202 577.291 23.9198 546.464 69.9149 546.464C178.184 546.464 150.531 684.308 265.407 684.308C344.68 684.308 402.789 642.664 442.506 592.412C472.444 554.533 540.213 543.182 592.957 543.182C705.813 543.182 723.6 634.621 723.6 700.718C723.6 779.154 618.463 819.52 537.776 841.116C465.733 860.398 326.717 839.006 265.407 809.834C192.754 775.264 141.877 802.718 127.637 863.274C117.556 906.142 110.678 924.864 69.9149 956.382C29.3972 987.71 -31.0141 974.823 -88.0826 973.125C-121.492 972.132 -119.134 926.317 -132.888 913.32C-140.716 905.922 -145.71 883.194 -146.565 873.936C-147.744 861.18 -155.055 849.859 -155.055 836.922C-155.055 791.942 -165.59 736.745 -127.7 699.077C-113.574 685.035 -97.3253 666.746 -91.1482 650.03C-88.2776 642.261 -75.8214 633.296 -68.0487 624.497M-61.8093 613.714C-62.3986 617.214 -64.8195 620.841 -68.0487 624.497M-61.8093 613.714C-64.244 617.263 -66.3394 620.865 -68.0487 624.497" stroke="#8873A6" stroke-width="10" stroke-linecap="round"/>
<path d="M214.6 60.6819C202.1 38.6819 192.6 -9.81812 192.6 -9.81812H264.264C264.264 -9.81812 267.016 17.6453 273.222 35.305C278.794 51.1616 292.73 57.0609 290.323 73.486C286.532 99.3559 227.1 82.6819 214.6 60.6819Z" fill="#F0CAA4"/>
<path d="M242.6 60.6819C230.1 38.6819 220.6 -9.81812 220.6 -9.81812H292.264C292.264 -9.81812 295.016 17.6453 301.222 35.305C306.794 51.1616 320.73 57.0609 318.323 73.486C314.532 99.3559 255.1 82.6819 242.6 60.6819Z" stroke="#EDB174" stroke-width="10"/>
<path d="M756.752 -5.40168V-30.9034C763.38 -34.2172 761.772 -39.2443 770.778 -41.2457C778.634 -42.9914 787.031 -48.7545 795.005 -48.7545C816.083 -48.7545 836.214 -51.3047 857.342 -51.3047H1048.75C1064.94 -51.3047 1091.47 -46.8959 1099.04 -30.9034C1102.49 -23.631 1108.68 -17.5434 1108.68 -9.22693C1108.68 20.0633 1107.14 49.5056 1108.68 78.7538C1109.95 102.966 1132.04 142.308 1149.48 157.809C1187.49 191.596 1239.23 204.226 1274.44 245.648C1323.34 303.182 1258.6 389.682 1182.6 363.682C1106.6 337.682 1042.89 231.654 984.1 278.682C956.67 300.626 924.776 317.59 895.028 336.321C845.736 367.356 700.623 358.966 652.195 315.919C592.491 262.849 604.54 223.527 652.195 154.692C669.099 130.276 690.852 108.358 711.416 86.971C733.637 63.8606 756.752 28.3394 756.752 -5.40168Z" fill="#A2D7B7"/>
<path d="M702.542 33.0848V-18.4946C709.17 -21.8085 707.562 -26.8356 716.568 -28.837C724.424 -30.5827 733.626 -64.9738 741.6 -38.896L803.132 -38.896H994.536C1010.73 -38.896 1037.26 -34.4872 1044.83 -18.4946C1048.28 -11.2223 1054.47 -5.13465 1054.47 3.18178C1054.47 32.4721 1052.93 87.9921 1054.47 117.24C1055.74 141.452 1077.83 180.794 1095.27 196.295C1133.28 230.083 1185.02 242.712 1220.23 284.135C1248.89 354.406 1197.89 409.668 1128.39 402.168C1054.45 402.168 988.385 197.153 929.6 244.182C902.17 266.125 844.348 335.675 814.6 354.406C765.308 385.441 646.413 397.452 597.986 354.406C538.281 301.335 550.331 262.013 597.986 193.179C614.889 168.763 636.642 146.844 657.206 125.458C679.428 102.347 702.542 66.8259 702.542 33.0848Z" stroke="#76BA91" stroke-width="10" stroke-linecap="round"/>
<path d="M215.166 109.586C171.839 66.6597 158.38 -3.81812 158.38 -3.81812H-0.400146V233.551C-0.400146 233.551 113.608 206.226 182.087 255.787C213.753 278.706 310.037 377.73 347.483 388.647C393.242 401.989 466.675 395.103 499.096 324.163C528.193 260.496 466.017 191.203 426.322 164.62C360.5 120.54 271.528 165.425 215.166 109.586Z" fill="#F0CAA4"/>
<path d="M185.1 169.182C141.773 126.256 67.9899 -21.3181 67.9899 -21.3181H-11.4002H-90.7903L-11.4002 315.551C-11.4002 315.551 102.607 288.226 171.087 337.787C202.753 360.706 299.037 459.73 336.483 470.647C382.242 483.989 455.675 477.103 488.096 406.163C517.193 342.496 455.016 273.203 415.321 246.62C349.5 202.54 241.462 225.022 185.1 169.182Z" stroke="#EDB174" stroke-width="10"/>
<circle cx="1282.6" cy="32.1819" r="90" fill="#A2D7B7"/>
<circle cx="1244.6" cy="66.1819" r="85" stroke="#76BA91" stroke-width="10"/>
<circle cx="870.6" cy="886.182" r="52" fill="#F8EE8F"/>
<circle cx="823.6" cy="857.182" r="47" stroke="#E3DC91" stroke-width="10"/>
<circle cx="253.1" cy="858.682" r="65.5" fill="#BCABD3"/>
<circle cx="242.1" cy="911.682" r="60.5" stroke="#8873A6" stroke-width="10"/>
<path d="M1440.17 303.85C1441.62 301.859 1448.63 290.096 1450.5 289.862C1476.76 289.862 1468.48 336.89 1468.48 354.309V399.271C1468.48 412.429 1467.43 426.046 1468.57 439.155C1469.79 453.257 1486.43 466.112 1480.47 480.537C1466.58 514.17 1450.24 535.574 1426.18 562.303C1395.11 596.832 1352.2 616.934 1308.95 631.662C1214.38 663.861 1040.64 700.522 1012.86 564.135C998.1 491.682 1007.82 423.781 1098.29 418.755C1133.93 416.775 1169.16 424.75 1204.7 424.75C1236.09 424.75 1290.1 427.341 1320.85 410.595C1372.44 382.51 1406.36 350.348 1440.17 303.85Z" fill="#F0B4D8"/>
<path d="M1464.71 296.946C1466.35 294.702 1474.25 281.445 1476.36 281.182C1505.96 281.182 1496.63 334.179 1496.63 353.809V404.479C1496.63 419.307 1495.44 434.653 1496.73 449.426C1498.11 465.318 1516.87 479.804 1510.15 496.061C1494.49 533.963 1476.07 558.084 1448.94 588.205C1413.91 627.118 1365.53 649.771 1316.76 666.369C1210.15 702.655 1014.26 743.969 982.936 590.27C966.295 508.62 977.255 432.1 1079.25 426.436C1119.44 424.205 1159.16 433.192 1199.23 433.192C1234.62 433.192 1295.51 436.112 1330.19 417.241C1388.34 385.59 1426.59 349.346 1464.71 296.946Z" stroke="#D091B7" stroke-width="10" stroke-linecap="round"/>
<path d="M958.661 900.532C947.033 930.19 918.993 950.454 881.534 957.234C828.433 966.845 799.193 957.234 772.642 913.043C762.226 878.718 729.584 816.659 660.556 853.194C631.658 887.94 665.655 916.158 696.336 936.748C731.414 960.288 700.531 1038.37 653.985 1042.1C656.19 1042.99 656.74 1044.9 658.548 1046.35C660.04 1047.54 662.899 1046.78 663.842 1048.1C664.849 1049.52 668.466 1055.87 669.593 1056.59C672.924 1058.73 675.189 1063.42 679.542 1064.42C683.149 1065.25 689.655 1069.38 692.594 1071.74C706.236 1082.67 726.877 1088.43 744.347 1094.12C759.943 1099.2 775.393 1105.08 791.08 1109.85C803.304 1113.57 814.847 1119.98 827.316 1123.02C835.813 1125.1 846.49 1123.76 855.247 1123.76H890.205C928.485 1123.76 966.872 1124 1005.03 1121.12C1076.19 1115.75 1149.84 1095.14 1208.94 1063.18C1218.17 1058.18 1231.25 1053.37 1236.14 1044.81C1238.35 1040.93 1237.23 1035.46 1237.23 1031.28V974.647C1237.23 962.711 1245.44 950.273 1248.64 938.723C1260.77 894.985 1351.68 824.567 1293.09 776.372C1268.39 756.05 1209.36 786.615 1151.43 786.615C1089.82 786.615 979.576 690.723 937.851 740.522C910.67 784.096 979.107 848.385 958.661 900.532Z" fill="#F8EE8F"/>
<path d="M896.209 878.462C882.792 915.423 850.438 940.676 807.216 949.126C745.946 961.104 712.207 949.126 681.572 894.054C669.554 851.277 631.889 773.937 552.242 819.469C518.898 862.77 558.125 897.936 593.527 923.596C634.001 952.932 598.366 1050.24 544.659 1054.89C547.204 1056 547.839 1058.38 549.925 1060.18C551.647 1061.67 554.945 1060.72 556.033 1062.37C557.195 1064.13 561.368 1072.05 562.668 1072.95C566.512 1075.61 569.126 1081.46 574.148 1082.7C578.31 1083.73 585.818 1088.89 589.209 1091.82C604.949 1105.45 628.766 1112.63 648.924 1119.72C666.919 1126.05 684.746 1133.38 702.846 1139.33C716.95 1143.96 730.269 1151.95 744.657 1155.74C754.461 1158.32 766.781 1156.65 776.884 1156.65H817.221C861.39 1156.65 905.683 1156.96 949.711 1153.37C1031.82 1146.67 1116.8 1120.99 1184.99 1081.15C1195.64 1074.93 1210.73 1068.93 1216.37 1058.27C1218.93 1053.44 1217.64 1046.61 1217.64 1041.4V970.827C1217.64 955.951 1227.11 940.451 1230.8 926.058C1244.79 871.549 1349.7 783.793 1282.09 723.73C1253.59 698.404 1185.48 736.496 1118.64 736.496C1047.55 736.496 920.342 616.992 872.197 679.053C840.835 733.356 919.801 813.475 896.209 878.462Z" stroke="#E3DC91" stroke-width="9" stroke-linecap="round"/>
<g opacity="0.2" filter="url(#filter0_d_151_33)">
<rect x="0.933105" y="0.795898" width="1440" height="1024" fill="white"/>
</g>
</g>
<defs>
<filter id="filter0_d_151_33" x="-5.06689" y="-5.2041" width="1456" height="1040" filterUnits="userSpaceOnUse" color-interpolation-filters="sRGB">
<feFlood flood-opacity="0" result="BackgroundImageFix"/>
<feColorMatrix in="SourceAlpha" type="matrix" values="0 0 0 0 0 0 0 0 0 0 0 0 0 0 0 0 0 0 127 0" result="hardAlpha"/>
<feMorphology radius="3" operator="dilate" in="SourceAlpha" result="effect1_dropShadow_151_33"/>
<feOffset dx="2" dy="2"/>
<feGaussianBlur stdDeviation="2.5"/>
<feComposite in2="hardAlpha" operator="out"/>
<feColorMatrix type="matrix" values="0 0 0 0 0.504167 0 0 0 0 0.504167 0 0 0 0 0.504167 0 0 0 0.25 0"/>
<feBlend mode="normal" in2="BackgroundImageFix" result="effect1_dropShadow_151_33"/>
<feBlend mode="normal" in="SourceGraphic" in2="effect1_dropShadow_151_33" result="shape"/>
</filter>
<clipPath id="clip0_151_33">
<rect width="1440" height="1024" fill="white" transform="translate(0.93335 0.796143)"/>
</clipPath>
</defs>
</svg>
