<svg width="448" height="448" viewBox="0 0 448 448" fill="none" xmlns="http://www.w3.org/2000/svg">
<path d="M400 0.00830078H48C21.5 0.00830078 0 21.5083 0 48.0083V400.008C0 426.508 21.5 448.008 48 448.008H400C426.5 448.008 448 426.508 448 400.008V48.0083C448 21.5083 426.5 0.00830078 400 0.00830078ZM277.3 383.708C268.9 385.208 265.8 380.008 265.8 375.708C265.8 370.308 266 342.708 266 320.408C266 304.808 260.8 294.908 254.7 289.708C291.7 285.608 330.7 280.508 330.7 216.608C330.7 198.408 324.2 189.308 313.6 177.608C315.3 173.308 321 155.608 311.9 132.608C298 128.308 266.2 150.508 266.2 150.508C253 146.808 238.7 144.908 224.6 144.908C210.5 144.908 196.2 146.808 183 150.508C183 150.508 151.2 128.308 137.3 132.608C128.2 155.508 133.8 173.208 135.6 177.608C125 189.308 120 198.408 120 216.608C120 280.208 157.3 285.608 194.3 289.708C189.5 294.008 185.2 301.408 183.7 312.008C174.2 316.308 149.9 323.708 135.4 298.108C126.3 282.308 109.9 281.008 109.9 281.008C93.7 280.808 108.8 291.208 108.8 291.208C119.6 296.208 127.2 315.408 127.2 315.408C136.9 345.108 183.3 335.108 183.3 335.108C183.3 349.008 183.5 371.608 183.5 375.708C183.5 380.008 180.5 385.208 172 383.708C106 361.608 59.8 298.808 59.8 225.408C59.8 133.608 130 63.9083 221.8 63.9083C313.6 63.9083 388 133.608 388 225.408C388.1 298.808 343.3 361.708 277.3 383.708ZM179.2 322.608C177.3 323.008 175.5 322.208 175.3 320.908C175.1 319.408 176.4 318.108 178.3 317.708C180.2 317.508 182 318.308 182.2 319.608C182.5 320.908 181.2 322.208 179.2 322.608ZM169.7 321.708C169.7 323.008 168.2 324.108 166.2 324.108C164 324.308 162.5 323.208 162.5 321.708C162.5 320.408 164 319.308 166 319.308C167.9 319.108 169.7 320.208 169.7 321.708ZM156 320.608C155.6 321.908 153.6 322.508 151.9 321.908C150 321.508 148.7 320.008 149.1 318.708C149.5 317.408 151.5 316.808 153.2 317.208C155.2 317.808 156.5 319.308 156 320.608ZM143.7 315.208C142.8 316.308 140.9 316.108 139.4 314.608C137.9 313.308 137.5 311.408 138.5 310.508C139.4 309.408 141.3 309.608 142.8 311.108C144.1 312.408 144.6 314.408 143.7 315.208ZM134.6 306.108C133.7 306.708 132 306.108 130.9 304.608C129.8 303.108 129.8 301.408 130.9 300.708C132 299.808 133.7 300.508 134.6 302.008C135.7 303.508 135.7 305.308 134.6 306.108ZM128.1 296.408C127.2 297.308 125.7 296.808 124.6 295.808C123.5 294.508 123.3 293.008 124.2 292.308C125.1 291.408 126.6 291.908 127.7 292.908C128.8 294.208 129 295.708 128.1 296.408ZM121.4 289.008C121 289.908 119.7 290.108 118.6 289.408C117.3 288.808 116.7 287.708 117.1 286.808C117.5 286.208 118.6 285.908 119.9 286.408C121.2 287.108 121.8 288.208 121.4 289.008Z" fill="#363636"/>
</svg>
