<svg width="27" height="27" viewBox="0 0 27 27" fill="none" xmlns="http://www.w3.org/2000/svg">
<path d="M10.5687 12.0796C10.8986 11.8407 11.0562 11.4442 11.0562 10.8966C11.0678 10.6386 11.0136 10.3819 10.8986 10.1507C10.7955 9.96243 10.6426 9.80614 10.4566 9.69896C10.2632 9.58256 10.0491 9.50475 9.82607 9.46983C9.58338 9.42423 9.33689 9.40192 9.08995 9.4032H6.41357V12.4403H9.3077C9.81632 12.4452 10.2388 12.3233 10.5687 12.0796ZM11.0204 14.8226C10.6451 14.5382 10.1478 14.3968 9.52707 14.3968H6.41357V17.9767H9.46532C9.7497 17.9767 10.0146 17.9507 10.2681 17.8955C10.5216 17.8402 10.7507 17.7525 10.9441 17.6208C11.1374 17.4941 11.2951 17.3218 11.4104 17.1025C11.5258 16.8831 11.5827 16.6003 11.5827 16.2591C11.5827 15.5896 11.3958 15.1118 11.0204 14.8226Z" fill="#363636"/>
<path d="M23.8677 0.689957H2.74268C1.40205 0.689957 0.305176 1.78683 0.305176 3.12746V24.2525C0.305176 25.5931 1.40205 26.69 2.74268 26.69H23.8677C25.2083 26.69 26.3052 25.5931 26.3052 24.2525V3.12746C26.3052 1.78683 25.2083 0.689957 23.8677 0.689957ZM17.3482 7.52958H22.6148V8.81496H17.3482V7.52958ZM14.0576 18.1181C13.8134 18.5861 13.4621 18.9898 13.0322 19.2962C12.584 19.6077 12.0838 19.8366 11.5551 19.9722C11.0016 20.1191 10.4312 20.1923 9.85855 20.19H3.5568V7.19483H9.68143C10.3006 7.19483 10.8644 7.25008 11.3779 7.35733C11.8866 7.46458 12.3221 7.64658 12.6877 7.89521C13.0484 8.14383 13.3328 8.47371 13.5359 8.88483C13.7342 9.29108 13.8349 9.80458 13.8349 10.4091C13.8349 11.064 13.687 11.6067 13.3881 12.0438C13.0891 12.481 12.6519 12.8352 12.0621 13.1147C12.8648 13.3438 13.4531 13.7501 13.8447 14.3237C14.2412 14.9022 14.4346 15.5977 14.4346 16.4102C14.4394 17.0748 14.3127 17.6436 14.0592 18.1165L14.0576 18.1181ZM24.6656 16.108H17.8763C17.8763 16.849 18.1298 17.5558 18.5166 17.9361C18.9033 18.3115 19.4607 18.5048 20.187 18.5048C20.7103 18.5048 21.1572 18.3732 21.5374 18.1083C21.9128 17.8451 22.1419 17.5656 22.2281 17.2763H24.503C24.1374 18.409 23.5833 19.2166 22.8277 19.7041C22.0818 20.1916 21.1669 20.4353 20.1058 20.4353C19.3648 20.4353 18.6986 20.3135 18.1006 20.0795C17.5274 19.8564 17.0096 19.5116 16.5828 19.0687C16.1628 18.6144 15.8379 18.0807 15.6273 17.499C15.3966 16.8558 15.2816 16.1769 15.2877 15.4937C15.2877 14.7885 15.4047 14.132 15.6338 13.5226C15.8506 12.9368 16.185 12.4015 16.6165 11.9499C17.048 11.4983 17.5675 11.1398 18.1428 10.8966C18.763 10.6366 19.4301 10.5071 20.1026 10.5163C20.9004 10.5163 21.5959 10.6691 22.1939 10.9827C22.7887 11.2931 23.2762 11.7091 23.6613 12.2323C24.0464 12.7556 24.3162 13.3503 24.4884 14.0198C24.6558 14.6796 24.7111 15.3767 24.6656 16.108Z" fill="#363636"/>
<path d="M20.023 12.4663C19.6119 12.4663 19.2658 12.5378 18.9976 12.6792C18.7295 12.8206 18.5101 12.9945 18.3428 13.1976C18.183 13.393 18.0651 13.6192 17.9966 13.8622C17.9345 14.0635 17.8952 14.2712 17.8796 14.4813H22.0851C22.025 13.8216 21.7959 13.3341 21.4904 12.9928C21.1751 12.6467 20.6584 12.4647 20.023 12.4647V12.4663Z" fill="#363636"/>
</svg>
