<svg width="457" height="262" viewBox="0 0 457 262" fill="none" xmlns="http://www.w3.org/2000/svg">
<path d="M11.2912 194.846L408.713 261.352C445.396 267.491 474.331 71.8517 444.055 66.7853C424.623 63.5335 416.428 94.9012 389.048 90.3193C367.655 86.7393 366.093 53.7389 344.7 50.1589C323.306 46.5789 311.086 77.273 289.693 73.6929C268.299 70.1129 266.738 37.1125 245.344 33.5325C223.951 29.9525 211.73 60.6465 190.337 57.0665C168.944 53.4865 167.382 20.4861 145.989 16.9061C124.595 13.3261 112.375 44.0201 90.9815 40.4401C69.5881 36.8601 76.1953 5.22668 46.6331 0.279666C21.6597 -3.89946 -20.1883 189.578 11.2912 194.846Z" fill="#8873A6"/>
</svg>
