<svg width="27" height="27" viewBox="0 0 27 27" fill="none" xmlns="http://www.w3.org/2000/svg">
<path d="M23.4163 0.05896C24.1825 0.05896 24.9173 0.363324 25.459 0.905096C26.0008 1.44687 26.3052 2.18167 26.3052 2.94785V23.1701C26.3052 23.9363 26.0008 24.6711 25.459 25.2128C24.9173 25.7546 24.1825 26.059 23.4163 26.059H3.19406C2.42788 26.059 1.69308 25.7546 1.15131 25.2128C0.60954 24.6711 0.305176 23.9363 0.305176 23.1701V2.94785C0.305176 2.18167 0.60954 1.44687 1.15131 0.905096C1.69308 0.363324 2.42788 0.05896 3.19406 0.05896H23.4163ZM22.6941 22.4478V14.7923C22.6941 13.5434 22.198 12.3457 21.3149 11.4626C20.4318 10.5795 19.2341 10.0834 17.9852 10.0834C16.7574 10.0834 15.3274 10.8345 14.6341 11.9612V10.3578H10.6041V22.4478H14.6341V15.3267C14.6341 14.2145 15.5296 13.3045 16.6418 13.3045C17.1782 13.3045 17.6925 13.5176 18.0718 13.8968C18.451 14.2761 18.6641 14.7904 18.6641 15.3267V22.4478H22.6941ZM5.90962 8.09007C6.55321 8.09007 7.17044 7.83441 7.62553 7.37932C8.08062 6.92423 8.33629 6.307 8.33629 5.6634C8.33629 4.32007 7.25295 3.22229 5.90962 3.22229C5.2622 3.22229 4.64129 3.47948 4.18349 3.93728C3.7257 4.39508 3.46851 5.01598 3.46851 5.6634C3.46851 7.00674 4.56629 8.09007 5.90962 8.09007ZM7.9174 22.4478V10.3578H3.91629V22.4478H7.9174Z" fill="#363636"/>
</svg>
